<svg viewBox="0 0 16 22" xmlns="http://www.w3.org/2000/svg">
  <path d="M13.649 8.761c-.887-1.02-1.866-1.6-2.142-1.36-.276.239.386 1.056.664 1.93a6.943 6.943 0 0 1-9.47 8.435c-.89-.399-1.383-1.078-1.726-.79-.343.29-.097 1.08.79 2.1A7.868 7.868 0 0 0 13.648 8.76zM2.712 2.14a7.869 7.869 0 0 1 11.1.786c.885 1.02 1.13 1.81.788 2.098-.343.29-.837-.39-1.726-.79a6.943 6.943 0 0 0-9.47 8.436c.278.874.944 1.691.666 1.93-.278.24-1.257-.34-2.144-1.36a7.869 7.869 0 0 1 .786-11.1zm5.076 5.908c1.148 0 2.077 1.21 2.077 2.703 0 1.492-.93 2.702-2.077 2.702-1.147 0-2.079-1.21-2.079-2.702 0-1.493.932-2.703 2.08-2.703z" fill="#FFF" fill-rule="nonzero"/>
</svg>
